<?xml version="1.0"?><svg width="640" height="480" xmlns="http://www.w3.org/2000/svg">
 <title>business person</title>
 <metadata id="metadata7">image/svg+xmlAn Office DeskSheikh Tuhin02/05/2010deskoffice</metadata>
 <g>
  <g id="g5">
   <g id="g3081">
    <path d="m365.358704,127.343201c-2.972931,2.544144 -6.603302,5.48848 -10.891174,8.947311c-4.345032,3.488266 -9.290375,7.232224 -14.950348,11.66301l0,0c-3.201599,0.571716 -6.288879,1.629379 -9.719147,3.287338c-3.544647,1.572235 -7.518066,3.573227 -10.490967,6.432602c-2.858582,2.800613 -4.516571,5.230408 -6.631897,10.490173c-2.172516,5.288376 -4.830994,12.549164 -6.203125,20.781845c-1.48645,8.118347 -2.344025,19.695587 -2.344025,27.785355c-0.028595,8.004013 1.057678,14.464386 2.143921,19.838516c0.914764,5.202606 0.200104,4.345016 3.687561,11.634399c3.430298,7.346527 9.033112,17.752548 16.922791,31.873093l0,0c1.086243,0.028595 2.115326,-0.056366 3.08725,-0.371613c0.971924,-0.371613 1.715149,-0.857574 2.544128,-1.571411l0,0c0.314453,2.286865 0.400208,4.402222 0.371613,6.231689c-0.200104,1.829498 -0.828979,3.344543 -0.77182,4.859558c0,1.400726 0.686066,2.915741 1.172028,3.887665c0.400177,0.914764 0.943329,1.314941 1.743744,1.743744c0.800385,0.343048 1.800873,0.571716 3.115814,0.571716l0,0l0,5.832306l0,0c-1.515045,0.027771 -3.173004,0.08493 -4.659454,0.400177c-1.515045,0.285065 -3.173035,0.600281 -4.659485,1.171997l0,0c-0.943329,12.148956 -1.400696,25.098297 -1.372131,39.734222c0.028595,14.578735 0.543152,29.958649 1.54364,47.02356l0,0c3.573212,0.057159 7.203613,0.057159 10.891174,0c3.687561,-0.142944 7.346527,-0.343018 11.091278,-0.600311l0,0l0.971893,-22.153168l0,0c0.628906,4.458588 1.400726,8.889374 2.31546,13.406708c0.943329,4.516571 2.201111,10.519592 3.115845,13.606842c0.828979,2.9729 0.971924,3.287354 1.743744,4.459381c0.686035,1.086243 1.429291,1.800903 2.344025,2.143921l0,0c1.257782,7.402893 2.172516,14.66449 3.08725,22.011047c0.77182,7.375092 1.572235,15.293365 1.943848,21.753754c0.257263,6.317444 0.028564,11.520813 0.200104,16.151733c0.142914,4.516541 0.400177,8.204102 0.77179,11.062683l0,0c1.772339,0.028564 3.373138,0.028564 4.68808,0c1.343536,-0.085785 2.401184,-0.115143 3.287354,-0.200104l0,0l0,1.372101l0,0c-3.03009,1.086273 -6.231689,3.258759 -9.719147,6.403229c-3.544647,3.230164 -8.518555,8.261261 -11.062683,12.434784c-2.658478,4.05838 -4.087769,8.43277 -4.287872,11.462891c-0.200104,2.915741 0.943329,5.631378 3.315948,5.831512c2.37262,0.057159 6.603302,-2.400421 10.490967,-5.058929c3.80191,-2.772766 7.803925,-6.317444 12.234711,-11.063446l0,0l6.031586,0l0,0c1.400696,-1.515015 2.858582,-3.029297 4.259277,-4.659485c1.314941,-1.65799 3.344543,-3.229401 4.087769,-5.059662c0.628876,-2.029572 0.686035,-4.316437 0.400208,-6.402405c-0.257294,-2.058167 -0.800415,-4.002045 -1.743744,-5.831512l0,0l0,0c1.200592,-0.714661 2.001007,-1.257813 2.515564,-1.943817c0.457367,-0.714661 0.628876,-1.257813 0.400177,-1.943817l0,0c0.485962,-0.11438 1.086273,-0.11438 2.115356,0c0.943329,0.028595 2.172516,0.200043 3.687561,0.400146l0,0l0,0c-1.200592,1.057709 -2.115356,2.344055 -2.515564,3.85907c-0.428772,1.486481 -0.314423,3.173065 -0.200073,5.059692c0,1.715179 0.172302,3.573212 0.400177,5.4599l0,0c0.772614,2.029572 1.972412,3.773285 3.488251,5.231171c1.486481,1.48645 3.401733,2.572754 5.631409,3.487488l0,0l6.031586,-1.342743l0,0c2.143921,2.715637 5.174805,5.202606 9.31897,7.575226c4.087769,2.344055 11.720154,6.173737 15.179016,6.402405c3.373138,0.085785 5.602814,-2.344025 5.031097,-5.631378c-0.77182,-3.401703 -5.459869,-9.862091 -9.118866,-13.978455c-3.773315,-4.230682 -9.14743,-8.232666 -12.720642,-10.576721c-3.516846,-2.286865 -6.374634,-3.401703 -8.461395,-3.230194l0,0l0.571716,-2.715607l0,0c1.429291,-0.257324 2.829987,-0.485962 4.087769,-0.571747c1.229187,-0.171539 2.429779,-0.200104 3.487457,-0.200104l0,0c-1.029083,-12.634918 -1.257782,-24.269287 -0.571716,-35.560669c0.686066,-11.291351 2.058197,-21.696564 4.459381,-31.673035l0,0c1.086273,-0.143707 1.915253,-1.314911 2.915741,-3.74469c0.828979,-2.430603 1.342743,-2.430603 2.544128,-10.691895c1.142639,-8.518524 2.800629,-27.042114 4.659485,-39.24823c1.74295,-12.234711 3.91626,-23.010712 6.203125,-33.216644l0,0c3.344513,-0.571686 5.774292,-1.657959 7.403687,-3.373108c1.54364,-1.771515 1.515045,-4.001984 2.115356,-6.802612c0.571716,-2.859375 1.029083,-6.145935 1.372101,-10.09079l0,0c1.972443,-0.143707 3.344543,-0.601074 4.459381,-1.372894c0.971924,-0.914764 1.457886,-1.743713 1.772339,-3.487457c0.285034,-1.801697 -0.285858,-4.802429 0.171509,-6.803406c0.428772,-2.001007 1.171997,-3.687561 2.344025,-5.059692l0,0c0.685272,0.77182 1.657959,1.486481 2.915741,2.143951c1.200623,0.628876 2.687073,1.114838 4.459381,1.571411l0,0c4.830994,-19.552673 8.575714,-34.645935 11.462891,-46.394669c2.829987,-11.662979 4.830994,-16.065186 5.459869,-23.12587c0.571716,-7.117859 0.028595,-11.434311 -1.943817,-19.238205c-2.115356,-7.946838 -7.146454,-20.953354 -10.119354,-27.556671c-3.000732,-6.574722 -3.258789,-8.775818 -7.374329,-11.662994c-4.230713,-2.944321 -9.919281,-4.888153 -17.494476,-5.831497l0,0c-3.059479,-2.944336 -6.974945,-5.545609 -11.863098,-8.146912c-4.945343,-2.601303 -10.662476,-5.003296 -17.465881,-7.203598l0,0c-16.952942,-0.688446 -33.932098,-1.37532 -50.912811,-2.089157l0,0z" id="path7" stroke-miterlimit="10" stroke-width="0.036" stroke="#000000" fill-rule="evenodd"/>
    <path d="m353.210541,139.034775l13.463898,-10.662491l49.424774,1.657974l11.463654,5.002502l0,0c-2.829987,2.772812 -5.832275,6.117355 -9.318939,10.147934c-3.516052,3.973419 -8.232697,9.862091 -11.291382,13.806915c-3.03009,3.830505 -5.34552,6.97493 -6.832001,9.318954l0,0c-1.000488,-4.945328 -2.172516,-9.175232 -3.830475,-13.149414c-1.629395,-4.002014 -4.459381,-8.060425 -5.831512,-10.31868c-1.42926,-2.287643 -2.31543,-3.430298 -2.658447,-3.316757l0,0c-2.143951,3.401703 -4.230713,7.318756 -6.145935,11.634415c-2.029602,4.373611 -3.716156,9.004501 -5.488464,14.321442l0,0c-2.715668,-4.516541 -5.488464,-8.690048 -8.318481,-12.634888c-2.887146,-4.059174 -6.460358,-8.347031 -8.832977,-11.005508c-2.517151,-2.658493 -4.345825,-4.259277 -5.803711,-4.802399l0,0z" id="path9" stroke-miterlimit="10" stroke-width="0.036" stroke="#000000" fill-rule="evenodd" fill="#ffffff"/>
    <path d="m387.48407,143.522736c-2.31546,5.288345 -4.059174,9.519043 -5.345551,12.806412c-1.314941,3.287354 -2.143921,5.488449 -2.486938,6.832001l0,0c1.029083,2.515533 2.029572,4.63089 3.001495,6.660477c0.971924,1.943832 1.915253,3.658951 2.829987,5.145416l0,0c0.343018,0.114349 0.914734,0.114349 1.829498,0c0.886139,-0.114334 3.001495,-0.886154 3.487457,-0.657471c0.314453,0.085754 -0.228699,1.057693 -1.172028,1.486465c-1.000488,0.343033 -2.515533,0.657471 -4.659485,0.828995l0,0c-1.400696,5.231171 -2.658478,10.147934 -3.658966,14.978943c-1.057678,4.830978 -1.886658,9.233185 -2.486969,13.635391l0,0c0.800415,1.257767 2.058197,3.401703 4.002014,6.660492c1.915253,3.201584 4.316437,7.289352 7.317963,12.491959l0,0c0.71463,-2.772812 1.515045,-5.717163 2.829987,-9.147446c1.229187,-3.401703 2.687042,-7.117844 4.487946,-11.148438l0,0c-1.343506,-5.40271 -2.459167,-10.633911 -3.344513,-15.807922c-0.886169,-5.231186 -1.54364,-10.205109 -1.972412,-15.150436l0,0c1.657959,-1.858078 2.944305,-3.373138 3.973419,-4.6595c1.000488,-1.372101 1.629364,-2.229675 2.00177,-3.001495l0,0c-1.001282,-4.545135 -2.344025,-8.68927 -4.145721,-12.32045c-1.829468,-3.687576 -3.916229,-6.860565 -6.488953,-9.633392l0,0z" id="path11" stroke-miterlimit="10" stroke-width="0.036" stroke="#000000" fill-rule="evenodd" fill="#a80000"/>
    <path d="m353.038239,139.692245l-1.515045,1.000504l0,0c3.630402,8.948151 6.689056,16.779831 9.490479,23.954865c2.687042,7.089249 3.973419,11.920242 6.83197,18.46637c2.801422,6.488998 6.088776,13.17804 9.97644,20.295914l0,0c0.886169,-5.945847 1.829498,-11.262802 2.829987,-15.950867c0.943329,-4.773834 1.943817,-8.775818 3.001495,-12.320465l0,0c-1.42926,-3.173004 -2.344025,-5.574219 -3.173004,-7.317963c-0.800415,-1.772308 -1.257782,-2.829956 -1.48645,-3.172989l0,0c-0.714661,2.143936 -1.286377,3.458862 -1.829498,4.173508c-0.514557,0.686066 -0.686066,0.77182 -1.515045,-0.171524c-0.914734,-1.029083 -2.143921,-3.030075 -4.144928,-6.003006c-2.201111,-3.086456 -5.231201,-8.318436 -8.318451,-12.148132c-3.08728,-3.831299 -6.431793,-7.433105 -10.147949,-10.806213l0,0z" id="path13" stroke-miterlimit="10" stroke-width="0.036" stroke="#000000" fill-rule="evenodd" fill="#ffffff"/>
    <path d="m428.247345,135.690231l1.143433,0.343033l0,0c0.713837,1.858871 0.657471,4.487946 -0.485962,8.319244c-1.171997,3.801895 -3.516052,8.890152 -6.145935,14.149948c-2.744232,5.173218 -6.94635,11.490677 -9.833496,16.636108c-2.944336,4.973923 -5.344757,8.947342 -7.660187,13.463882c-2.344025,4.573715 -4.545929,8.890167 -6.488983,13.492477l0,0c-1.372894,-6.003006 -2.516327,-11.119858 -3.316711,-15.807922c-0.857574,-4.688049 -1.372131,-8.604309 -1.65799,-11.977432l0,0c0.800415,-1.143433 1.629395,-2.25827 2.486969,-3.344513c0.801178,-1.172028 1.630188,-2.172531 2.487732,-3.315964l0,0c0.171539,0.543137 0.400208,0.943344 0.685272,1.314941c0.228699,0.343033 0.485962,0.828995 1.001312,0.686066c0.427979,-0.257263 0.427979,-0.171509 2.001007,-2.172531c1.515015,-2.143921 4.659454,-6.659653 7.460876,-10.147919c2.772003,-3.573212 6.602509,-7.71817 9.176025,-10.662491c2.429779,-2.944336 4.287048,-5.231201 5.802887,-6.974915c1.572235,-1.829498 2.543365,-3.201614 3.34375,-4.002014l0,0z" id="path15" stroke-miterlimit="10" stroke-width="0.036" stroke="#000000" fill-rule="evenodd" fill="#ffffff"/>
    <path d="m350.380554,141.521713c-2.029572,1.314957 -3.716156,2.486984 -5.488464,3.830521c-1.743713,1.314926 -3.315948,2.486954 -4.830994,3.830475l0,0c1.54364,3.773331 2.887177,7.317963 4.144928,10.633896c1.172028,3.344543 1.915253,6.174545 3.344543,9.14743c1.400696,2.887177 3.115845,5.574234 5.145447,8.175537l0,0c0.485931,0.571716 1.372101,0.914734 2.658447,1.143433c1.257782,0.142929 2.887177,0.142929 5.002533,0l0,0c0.485962,1.029083 0.800385,2.544113 0.828979,4.65947c0.028595,2.086777 -0.142944,4.659485 -0.514557,7.832504l0,0c0.543152,1.286346 2.029602,3.801926 4.345032,7.660995c2.344055,3.88765 6.660492,11.005493 9.633423,15.29335c2.829987,4.116364 5.34552,7.117874 7.66095,9.661987c2.31546,2.601303 4.202118,4.345047 6.003021,5.659988l0,0l1.48645,-3.83049l0,0c-3.773315,-4.916763 -7.232178,-10.090775 -10.490967,-15.636414c-3.315948,-5.602814 -5.945831,-10.862579 -8.975922,-17.637421c-3.173004,-6.917725 -6.317444,-15.350525 -9.318939,-22.982941c-3.08728,-7.717331 -6.860596,-18.009018 -8.661499,-22.611313c-1.801697,-4.631668 -2.459167,-6.203094 -1.972412,-4.831009l0,0z" id="path17" stroke-miterlimit="10" stroke-width="0.036" stroke="#000000" fill-rule="evenodd" fill="#294b70"/>
    <path d="m430.906616,136.690735c2.458374,0.886139 4.802399,2.20108 7.146423,3.830475c2.344025,1.686584 4.545135,3.544647 6.832001,6.003799l0,0c-1.257751,3.429504 -2.772827,7.031311 -4.659485,11.148453c-1.943024,4.086945 -4.830994,10.147141 -6.660461,13.120071c-1.886658,2.772827 -2.37262,3.00148 -4.316467,4.001999c-2.00177,1.000504 -4.459351,1.629379 -7.490234,2.001007l0,0c-0.628906,1.057678 -0.800415,2.772827 -0.513763,5.145416c0.285065,2.344055 0.971924,5.345535 2.171722,9.004517l0,0c-2.744232,4.173523 -5.631378,8.289871 -8.660675,12.463394c-3.059479,4.144943 -5.575043,7.889679 -9.634216,12.32045c-4.202087,4.430801 -9.176025,8.947342 -15.150421,13.978439l0,0c-0.028595,-0.886154 0.600281,-3.230179 2.001007,-7.146439c1.457855,-4.030579 3.973389,-11.377136 6.317444,-16.322464c2.229675,-4.916763 4.030579,-8.089783 6.83197,-13.149445c2.659271,-5.259796 6.432617,-12.320465 9.461884,-17.637405c3.03009,-5.31694 5.974426,-9.804901 8.48999,-14.121353c2.458374,-4.402222 4.5737,-8.289078 6.002991,-11.977417c1.286377,-3.773331 1.65799,-8.032593 2.001801,-10.147964c0.257263,-2.143921 0.19931,-2.945114 -0.171509,-2.515533l0,0z" id="path19" stroke-miterlimit="10" stroke-width="0.036" stroke="#000000" fill-rule="evenodd" fill="#294b70"/>
    <path d="m333.800018,89.352753c-0.057159,3.115814 0.457397,6.545319 1.429291,10.405174c0.943329,3.801933 2.344025,8.48999 4.316467,12.634926c1.943817,4.086967 4.144928,8.28907 7.032074,12.063164c2.772827,3.829704 5.945831,7.174263 9.633392,10.347267c3.630402,3.001495 7.603821,5.774323 12.377655,7.775314c4.802399,2.001785 10.833984,3.488251 16.093781,4.030609c5.174011,0.371597 10.033569,-0.057175 14.807404,-1.286362c4.746033,-1.314957 9.404694,-3.287369 13.635406,-5.917252c4.145721,-2.715652 7.946838,-6.717667 11.092072,-9.918472c2.915741,-3.288155 5.002472,-6.145935 7.031281,-9.461884c2.058167,-3.344528 3.830505,-6.832001 5.316956,-10.348045c1.429291,-3.573219 2.544128,-7.575203 3.458069,-10.805389c0.857574,-3.258781 1.429291,-6.088791 1.715149,-8.604317l0,0c0.82901,0.400185 1.886688,0.600296 3.173035,0.600296c1.286346,-0.028595 3.058685,0.028595 4.430786,-0.713844c1.314941,-0.85759 2.458374,-2.058189 3.315948,-4.030602c0.744019,-2.001801 1.314941,-5.145447 1.286346,-7.89045c-0.114349,-2.915749 -0.943329,-6.660477 -1.715118,-8.917969c-0.857574,-2.230499 -1.829498,-3.601822 -3.029297,-4.459351c-1.314972,-0.91478 -2.88797,-1.029106 -4.287872,-1.000519c-1.400696,-0.028587 -2.658478,0.171524 -3.887665,0.713844l0,0c0.743225,-2.829182 0.743225,-6.260254 0,-10.633923c-0.829773,-4.373611 -2.259064,-10.090771 -4.603119,-15.37912c-2.486938,-5.374123 -7.117828,-12.663481 -9.489655,-16.464581c-2.37262,-3.74551 -2.401215,-4.374441 -4.402191,-6.203891c-2.001831,-1.94383 -4.287872,-3.91626 -7.51886,-5.2598c-3.315948,-1.515059 -7.346558,-2.57271 -11.977417,-3.173c-4.715881,-0.71388 -10.119385,-0.85758 -15.779358,-0.31444c-5.802887,0.51373 -12.549133,1.71513 -18.237701,4.02976c-5.745728,2.34405 -10.833984,5.832311 -15.37912,9.919261c-4.63089,4.030579 -8.518555,8.976709 -11.662994,13.949841c-3.173035,4.831028 -5.40271,11.291389 -7.032104,15.093269c-1.743713,3.716141 -2.229675,5.20261 -2.887146,7.317959c-0.657471,2.14394 -0.943329,3.716961 -0.857574,5.03109c0.085754,1.172852 0.371613,1.801731 1.171997,2.001781l0,0c-1.972412,-0.142921 -3.516022,0.28508 -4.745209,1.172028c-1.257782,0.85759 -1.972443,2.31546 -2.601318,4.145744c-0.743225,1.800896 -1.48645,3.973434 -1.572205,6.631874c-0.05719,2.629913 0.028564,6.832031 1.143433,9.061707c1.029083,2.086746 3.601807,3.344536 5.174011,4.002014c1.573792,0.570915 2.802185,0.628082 4.031372,-0.14373l0,0l0,0.000015z" id="path21" stroke-miterlimit="10" stroke-width="0.036" stroke="#000000" fill-rule="evenodd"/>
    <path d="m337.23111,64.626083c1.829498,-0.971912 3.80191,-2.258312 5.917267,-3.858284c2.058167,-1.686581 4.63089,-3.801929 6.603302,-5.88868c1.943817,-2.28764 3.487457,-4.803211 4.745239,-6.774811c1.114838,-1.886688 1.743713,-3.458889 2.000977,-4.602318l0,0c4.602325,1.17202 8.890167,1.829498 13.092285,2.31546c4.202118,0.285069 8.175537,0.25647 11.920258,0.142918c3.630402,-0.11433 6.374634,0.028591 9.776337,-0.571739c3.373108,-0.657478 7.032074,-2.086761 10.205902,-3.173c3.08725,-1.172798 5.659973,-2.115349 8.060394,-3.60181c2.286865,-1.572201 4.117126,-3.315968 5.603577,-5.459858l0,0c1.172028,2.458378 2.371826,5.059677 3.716156,7.91824c1.343536,2.801411 2.629883,5.860081 4.173523,9.061668c1.48645,3.17305 3.059479,7.117851 4.602295,9.947849c1.40152,2.744232 2.887177,5.059692 4.030609,6.602524c1.086243,1.430099 1.48645,1.60157 2.429779,2.172485c0.914734,0.486 1.772308,0.85759 2.88797,1.000511l0,0c-0.200104,0.514549 -0.257294,1.086281 -0.285858,1.715172c-0.05719,0.514549 0.028564,1.801682 0.142914,2.001793c0.085754,0.142914 0.228699,-0.085785 0.428802,-0.572525c0.143707,-0.485176 0.228668,-1.45787 0.572479,-2.143112c0.285065,-0.801216 0.713867,-1.572243 1.285583,-2.315453c0.485962,-0.829765 1.201385,-1.743721 2.030396,-2.287697c0.77179,-0.600273 1.771515,-1.085403 3.001495,-1.142593c1.171997,-0.171524 3.08725,-0.314445 4.316437,0.571686c1.200592,0.886169 2.31546,2.887199 3.03009,4.888168c0.571716,1.886681 0.857574,4.08699 0.857574,6.602516c0.027802,2.459206 -0.257263,6.032394 -0.857574,8.061188c-0.686066,1.85807 -1.830292,3.059456 -3.316742,3.716141c-1.6008,0.657486 -4.402191,0.801186 -5.744934,0.314461c-1.343536,-0.571716 -1.972412,-2.858574 -2.430603,-3.315964c-0.600281,-0.457367 -0.77182,-0.115128 -0.743225,0.571709c-0.028595,0.571724 0.971924,1.372139 1.029083,3.173019c0.028595,1.743752 -0.085724,3.83049 -0.886139,7.460884c-0.971924,3.573242 -2.486969,9.434097 -4.430786,13.836311c-2.001007,4.345016 -4.402222,8.28907 -7.089264,12.062401c-2.658478,3.688347 -5.4599,7.061478 -8.947357,10.234497c-3.630371,3.115829 -8.347839,6.431778 -12.491974,8.518524c-4.230682,1.943848 -7.77533,3.087265 -12.491974,3.544647c-4.859558,0.457367 -10.976929,0.200119 -15.922241,-0.77182c-5.031097,-1.086273 -9.20462,-2.915756 -13.606812,-5.488464c-4.430817,-2.687057 -9.004517,-6.346039 -12.634918,-10.205902c-3.687561,-3.973419 -6.717651,-8.975937 -9.090271,-13.035118c-2.401184,-4.144905 -3.887665,-7.860268 -5.116852,-11.37632c-1.343536,-3.630386 -2.086761,-7.003494 -2.544128,-9.661987c-0.485962,-2.630669 -0.571716,-4.716652 -0.257263,-6.145927l0,0c0.857574,-0.97271 1.515045,-1.801704 1.858063,-2.601303c0.343048,-0.857582 0.285858,-2.200302 0.142944,-2.171738c-0.285858,-0.057159 -0.800415,1.400711 -1.429291,2.171738c-0.657471,0.744011 -1.429291,2.030388 -2.42981,2.430588c-1.229156,0.25647 -2.801392,0.25647 -4.173492,-0.428795c-1.400726,-0.744034 -2.858582,-2.001793 -3.601807,-3.887665c-0.77182,-1.886635 -0.971924,-4.945351 -0.714661,-7.317947c0.171509,-2.515572 0.971924,-5.431313 1.858093,-7.203629c0.828979,-1.829453 2.000977,-2.629906 3.173004,-3.287323c1.086273,-0.686066 2.458374,-0.514549 3.458862,-0.571739c0.82901,-0.11515 1.314972,-0.228661 2.001007,0c0.800415,0.114319 1.6008,0.343033 2.286865,1.000511c0.543121,0.543137 0.743225,2.515518 1.029083,2.71563c0.200104,0.114326 0.400208,-0.771812 0.285858,-1.572197c-0.202484,-0.859962 -0.602661,-1.889076 -1.316528,-3.31752l0,0z" id="path23" stroke-miterlimit="10" stroke-width="0.036" stroke="#000000" fill-rule="evenodd" fill="#e8cdba"/>
    <path d="m329.626495,75.716553c0.200104,-0.885376 0.428802,-2.25827 1.000519,-3.029305c0.543121,-0.8004 1.257782,-1.686577 2.029572,-2.001785c0.600311,-0.428825 1.372131,-0.943336 2.001007,-0.428825c0.543152,0.485954 1.629395,2.459206 1.715149,3.14444c0.05719,0.514549 -1.000488,0.572525 -1.286346,0.285866c-0.400208,-0.42878 -0.543152,-1.800865 -0.857574,-2.143906c-0.371613,-0.40023 -0.886169,-0.428818 -1.429291,0.1437c-0.571716,0.513725 -1.886658,2.001022 -2.172516,3.14444c-0.400208,1.057663 -0.371613,2.544136 -0.142944,3.458076c0.114349,0.85759 0.485962,1.429276 1.000519,1.715179c0.485962,0.142914 1.715149,-0.657532 2.029572,-0.428825c0.228699,0.228706 0,1.314949 -0.571716,1.6008c-0.628876,0.143745 -2.515533,0.11515 -3.03009,-0.428764c-0.628876,-0.628891 -0.400177,-2.02961 -0.428772,-2.887154c-0.14212,-0.828217 -0.057159,-1.39991 0.142914,-2.143936l0,0z" id="path25" stroke-miterlimit="10" stroke-width="0.036" stroke="#000000" fill-rule="evenodd"/>
    <path d="m447.45697,78.347221c-0.115143,-0.943321 -0.228699,-2.286858 -0.571716,-3.144455c-0.457367,-1.000458 -1.057678,-1.801689 -1.686554,-2.286819c-0.57251,-0.457405 -1.286377,-1.172844 -1.915253,-0.714661c-0.744019,0.34304 -2.058167,2.286865 -2.172516,2.859383c-0.200104,0.543098 0.800385,0.74321 1.229187,0.48513c0.371613,-0.343033 0.686066,-1.742889 1.172791,-2.000969c0.371643,-0.371628 0.913971,-0.257294 1.400726,0.34304c0.485962,0.628876 1.400696,2.258263 1.657959,3.458839c0.171509,1.114059 -0.084961,2.515572 -0.343018,3.42952c-0.314453,0.74398 -0.772614,1.401459 -1.257782,1.543602c-0.57251,0 -1.686554,-0.828995 -1.915222,-0.714615c-0.285858,0.1437 -0.285858,1.314957 0.314423,1.657967c0.543915,0.20089 2.37262,0.457359 3.059479,0c0.571716,-0.543121 0.713837,-1.943031 0.857574,-2.772026c0.169922,-0.772629 0.227875,-1.372139 0.169922,-2.143936l0,0z" id="path27" stroke-miterlimit="10" stroke-width="0.036" stroke="#000000" fill-rule="evenodd"/>
    <path d="m444.026672,75.574387c-0.114349,0.285866 0.657471,1.457886 0.886169,2.286873c0.114349,0.8004 0.171509,2.172539 0.285858,2.45916c0.142914,0.142967 0.485168,-0.629662 0.571716,-1.314949c0,-0.743988 -0.343048,-2.315407 -0.571716,-2.859337c-0.314453,-0.6297 -1.143433,-0.858406 -1.172028,-0.571747l0,0z" id="path29" stroke-miterlimit="10" stroke-width="0.036" stroke="#000000" fill-rule="evenodd"/>
    <path d="m377.336121,68.799591c0,1.91523 1.54364,3.458885 3.458893,3.458885c1.915222,0 3.458862,-1.543655 3.458862,-3.458885c0,-1.886688 -1.54364,-3.42952 -3.458862,-3.42952c-1.915253,0 -3.458893,1.542831 -3.458893,3.42952l0,0z" id="path31" stroke-miterlimit="10" stroke-width="0.036" stroke="#000000" fill-rule="evenodd"/>
    <path d="m391.28598,68.942513c0,1.915237 1.54361,3.458061 3.458862,3.458061c1.886658,0 3.429504,-1.542824 3.429504,-3.458061c0,-1.886642 -1.542847,-3.430305 -3.429504,-3.430305c-1.914459,0 -3.458862,1.543663 -3.458862,3.430305l0,0z" id="path33" stroke-miterlimit="10" stroke-width="0.036" stroke="#000000" fill-rule="evenodd"/>
    <path d="m373.334137,59.737091c1.000488,-0.428772 3.487457,-0.913952 5.459869,-1.142612c1.800903,-0.314438 5.145416,-0.371628 5.745728,-0.285839c0.543121,0.085732 -0.257263,0.371582 -2.172516,0.85754c-2.029602,0.400219 -7.832489,1.486462 -9.347534,1.60162c-1.486481,0.026989 -0.714661,-0.715439 0.314453,-1.030708l0,0z" id="path35" stroke-miterlimit="10" stroke-width="0.036" stroke="#000000" fill-rule="evenodd"/>
    <path d="m395.574615,59.194771c0.971924,0.028599 3.658203,0.371628 5.517059,0.91473c1.858063,0.42881 4.858795,1.514278 5.459869,1.829491c0.456573,0.257309 -0.428772,0.343037 -2.344025,0.028599c-2.030365,-0.400219 -7.832489,-1.486469 -9.26178,-1.943829c-1.48645,-0.457363 -0.400208,-0.91555 0.628876,-0.828991l0,0z" id="path37" stroke-miterlimit="10" stroke-width="0.036" stroke="#000000" fill-rule="evenodd"/>
    <path d="m358.241638,46.759991c0.943329,0.428768 3.458893,0.828949 5.459869,1.314899c1.915253,0.400219 5.174042,0.800449 6.031616,0.85759c0.657471,-0.17152 -0.028595,-0.771809 -1.286377,-1.143429c-1.257782,-0.314449 -4.345032,-0.457371 -6.060181,-0.74321c-1.800903,-0.371632 -3.601807,-1.314953 -4.287842,-1.286362c-0.829803,-0.05719 -0.744049,0.57169 0.142914,1.000511l0,0z" id="path39" stroke-miterlimit="10" stroke-width="0.036" stroke="#000000" fill-rule="evenodd"/>
    <path d="m415.86972,41.728901c0.400208,1.314899 1.143433,3.544621 2.001801,5.03109c0.657471,1.37286 2.200287,3.344509 2.31543,3.173c-0.028564,-0.314442 -0.972717,-3.11586 -1.743713,-4.888172c-0.886169,-1.858047 -2.201111,-5.68856 -2.715668,-6.203117c-0.400177,-0.543922 -0.315216,1.486469 0.142151,2.887199l0,0z" id="path41" stroke-miterlimit="10" stroke-width="0.036" stroke="#000000" fill-rule="evenodd"/>
    <path d="m370.876556,48.503712c0,0.228649 0.543121,0.428768 1.229156,0.428768c0.657501,0 1.229218,-0.200119 1.229218,-0.428768c0,-0.257301 -0.571716,-0.428822 -1.229218,-0.428822c-0.686829,0 -1.229156,0.17152 -1.229156,0.428822l0,0z" id="path43" stroke-miterlimit="10" stroke-width="0.036" stroke="#000000" fill-rule="evenodd"/>
    <path d="m420.815826,51.01923c-0.228668,0.11438 -0.115143,0.686069 0.200104,1.257809c0.343018,0.600281 0.77182,0.971912 0.971924,0.85754c0.200104,-0.115108 0.115143,-0.686028 -0.200104,-1.257759c-0.343048,-0.600288 -0.77182,-0.972691 -0.971924,-0.85759l0,0z" id="path45" stroke-miterlimit="10" stroke-width="0.036" stroke="#000000" fill-rule="evenodd"/>
    <path d="m364.559082,103.273987l1.286377,-0.571716l0,0c0.457367,2.630676 1.229187,5.116852 2.31543,7.460876c0.971924,2.31546 2.31546,4.545135 4.144928,6.460373c1.858093,1.800903 4.087769,3.287369 6.917755,4.459373c2.801422,1.085495 6.317444,2.515549 9.776337,2.31546c3.344513,-0.314445 7.375122,-2.001793 10.205902,-3.745537c2.687073,-1.74295 4.715851,-4.430779 6.31665,-6.746216c1.54364,-2.515572 2.37262,-5.459908 3.14444,-7.631622c0.686066,-2.172508 1.201385,-3.944817 1.314941,-5.31694l0,0l1.715149,0.142929l0,0c-0.857574,3.001503 -1.829498,5.917252 -3.03009,8.632904c-1.171997,2.77282 -2.515533,5.459862 -4.144928,7.74675c-1.686554,2.230476 -3.601807,3.859062 -6.203125,5.316925c-2.715637,1.286362 -6.574707,2.486961 -9.91925,2.601311c-3.401703,0 -7.203613,-0.600304 -10.319458,-2.143936c-3.230194,-1.629395 -6.546143,-4.459373 -8.632874,-7.060684c-2.115356,-2.572708 -3.115845,-6.261078 -3.887665,-8.204109c-0.829803,-2.029587 -1.200623,-3.230179 -1.000519,-3.716141l0,0z" id="path47" stroke-miterlimit="10" stroke-width="0.036" stroke="#000000" fill-rule="evenodd"/>
    <path d="m363.271942,103.131073c0.800385,-0.485962 1.657959,-0.714645 2.572723,-1.000526c0.943329,-0.372383 2.915741,-1.429268 3.173004,-1.172783c0.200104,0.200089 -1.029083,1.486458 -2.029572,2.31543c-1.200623,0.772614 -3.344543,1.743736 -4.459381,2.143936c-1.114838,0.228683 -2.344055,-0.057159 -2.143951,-0.428757c0.142944,-0.456596 1.915253,-1.371346 2.887177,-1.8573l0,0z" id="path49" stroke-miterlimit="10" stroke-width="0.036" stroke="#000000" fill-rule="evenodd"/>
    <path d="m412.525177,99.671402c-1.029083,-0.200111 -1.800903,-0.456589 -2.744232,-0.456589c-1.114838,-0.314445 -3.173004,-0.628883 -3.315948,-0.485954c-0.142914,0.228668 1.143433,1.257782 2.429779,1.85807c1.143433,0.514549 3.658997,1.057671 4.803223,1.172028c1.171997,0 2.143127,-0.543159 2.029572,-0.856789c-0.258057,-0.373207 -2.201904,-1.002075 -3.202393,-1.230766l0,0z" id="path51" stroke-miterlimit="10" stroke-width="0.036" stroke="#000000" fill-rule="evenodd"/>
    <path d="m355.668121,43.10099c-0.571716,1.800911 -1.54364,3.458069 -2.601288,5.287571c-1.143433,1.772308 -2.344025,3.230179 -4.144928,5.259789c-1.943848,1.886639 -5.002533,4.630871 -7.175049,6.374592c-2.286835,1.686569 -4.402191,3.25882 -5.917236,3.830517c-1.572205,0.485958 -2.658478,0 -3.14444,-0.8004c-0.543121,-0.91473 -0.171509,-2.259098 0.343048,-4.374439c0.457367,-2.171711 1.171997,-4.9739 2.687042,-8.518528c1.515045,-3.659 3.716156,-8.947342 6.260284,-13.006523c2.429779,-4.202099 5.116852,-8.004019 8.404205,-11.520048c3.201599,-3.60181 6.860596,-6.86137 10.976929,-9.4333c4.059174,-2.57271 8.175537,-4.37444 13.12085,-5.71716c4.830994,-1.40151 11.091278,-2.25827 15.807922,-2.57271c4.602325,-0.37163 8.118347,-0.02859 12.091766,0.571691c3.830505,0.45741 7.861084,1.057699 11.32077,2.68709c3.487457,1.5722 6.774017,4.51654 9.20459,7.06148c2.229706,2.45838 3.173035,5.03109 4.830994,7.8325c1.74295,2.8006 3.716156,5.973591 5.259796,8.747238c1.429291,2.601303 2.171722,4.00198 3.344513,7.06065c1.057678,3.030121 2.544159,7.718952 3.258789,10.976963c0.628876,3.115799 0.744019,5.545589 0.772614,7.746719c-0.028595,2.115349 -0.143738,3.830467 -0.657471,5.145416c-0.628906,1.257813 -1.343536,2.37265 -2.459167,2.572762c-1.142639,0.027771 -2.486969,-0.200111 -4.029816,-1.886688c-1.657959,-1.801689 -3.344513,-4.974731 -5.174805,-8.404202c-1.829498,-3.573219 -3.658173,-7.832508 -5.602814,-12.234718c-2.058167,-4.40221 -4.030579,-8.890152 -6.260254,-13.779091l0,0c0.91394,-1.429329 1.542816,-3.144449 1.886658,-5.2598c0.285034,-2.25827 0.142914,-6.48896 0.114319,-7.51807c-0.114319,-0.94331 -0.371613,0.428822 -0.543121,1.686581c-0.257263,1.22917 -0.085754,3.20159 -0.571716,5.25975c-0.543915,1.97242 -1.143433,4.40221 -2.572723,6.517559c-1.601593,1.943829 -3.373108,3.659 -6.517548,5.37495c-3.288147,1.657982 -8.461365,3.65818 -12.549927,4.80238c-4.116364,1.08625 -7.518066,1.429279 -11.747955,1.800911c-4.316437,0.200108 -9.690582,0.085728 -13.692566,-0.11433c-4.030609,-0.17234 -7.317963,-0.543919 -9.97644,-1.114841c-2.658478,-0.800388 -4.430786,-1.829498 -6.088745,-2.972927c-1.829498,-1.257763 -4.002014,-3.458073 -4.545135,-3.744743c-0.571716,-0.228699 0.543121,1.686581 1.143433,2.42979c0.514526,0.600292 1.257751,0.914722 2.115326,1.60162c0.856781,0.600292 1.829498,1.45787 3.029297,2.344002l0,0z" id="path53" stroke-miterlimit="10" stroke-width="0.036" stroke="#000000" fill-rule="evenodd" fill="#78605c"/>
    <path d="m340.660614,57.850449c0.371613,-0.685238 2.715637,-2.058159 3.830475,-3.000698c1.000519,-0.91478 1.6008,-1.486469 2.687073,-2.601311c1.086243,-1.257809 3.315948,-4.144951 3.91626,-4.459389c0.400177,-0.34304 0.028564,1.28635 -0.77182,2.459148c-0.857574,1.172031 -2.42981,2.887199 -3.830505,4.373619c-1.429291,1.429321 -3.401703,3.287373 -4.373627,3.916252c-1.029083,0.42799 -1.886658,-0.058743 -1.457855,-0.687622l0,0z" id="path55" stroke-miterlimit="10" stroke-width="0.036" stroke="#000000" fill-rule="evenodd"/>
    <path d="m338.316589,60.080898c0.085754,0.17152 0.543121,0.05719 1.000488,-0.257248c0.457367,-0.285851 0.743225,-0.657471 0.628876,-0.828991c-0.085754,-0.142929 -0.543121,-0.028599 -1.000488,0.257301c-0.456573,0.314438 -0.743225,0.685238 -0.628876,0.828938l0,0z" id="path57" stroke-miterlimit="10" stroke-width="0.036" stroke="#000000" fill-rule="evenodd"/>
    <path d="m355.211548,37.755459c0.828979,0.657471 3.315948,2.001022 5.374115,2.915741c1.886658,0.74403 4.087769,1.486469 6.603302,1.915241c2.515564,0.343029 7.489471,0.485958 8.632904,0.428818c1.086273,-0.142929 -0.571716,-0.543148 -2.001801,-0.771858c-1.54361,-0.200062 -4.716644,-0.314442 -6.746216,-0.57251c-2.115356,-0.456539 -3.80191,-0.97187 -5.374115,-1.542831c-1.572235,-0.572468 -2.801422,-1.17281 -3.80191,-1.686531c-1.057678,-0.543919 -1.915253,-1.429279 -2.344055,-1.457867c-0.485962,-0.143753 -1.229187,0.114326 -0.342224,0.771797l0,0z" id="path59" stroke-miterlimit="10" stroke-width="0.036" stroke="#000000" fill-rule="evenodd"/>
    <path d="m364.615479,38.8703c0.114319,0.457359 1.000488,2.058159 1.572205,2.800591c0.514557,0.714661 1.257782,1.2864 1.457886,1.257809c0.085754,-0.142918 -0.571716,-1.257809 -0.886169,-1.915241c-0.457367,-0.713879 -0.828979,-1.943047 -1.229187,-2.25832c-0.371613,-0.399399 -1.08548,-0.399399 -0.914734,0.115162l0,0z" id="path61" stroke-miterlimit="10" stroke-width="0.036" stroke="#000000" fill-rule="evenodd"/>
    <path d="m362.385773,39.555592c-0.057159,0.285839 0.457367,1.143429 0.886169,1.686527c0.343018,0.428772 1.343536,1.314953 1.457855,1.229992c0.085754,-0.172291 -0.686035,-1.430099 -0.886139,-1.915241c-0.200104,-0.514549 -0.428802,-1.029099 -0.571716,-1.11483c-0.257263,-0.200119 -0.913971,-0.200119 -0.886169,0.113552l0,0z" id="path63" stroke-miterlimit="10" stroke-width="0.036" stroke="#000000" fill-rule="evenodd"/>
    <path d="m388.8284,40.756981c1.743713,-0.886181 7.203613,-2.51556 10.319458,-3.801922c3.058655,-1.286358 5.744934,-2.601299 8.060364,-3.830521c2.172546,-1.343489 4.002014,-2.687038 5.374908,-3.687548c1.372131,-1.143431 2.229706,-2.001791 2.915771,-2.344c0.628876,-0.257301 1.114838,-0.11515 0.800385,0.543098c-0.428772,0.543921 -1.886658,1.65798 -3.14444,2.68708c-1.286346,0.91473 -2.744202,2.001801 -4.602295,3.144402c-1.943817,1.114887 -4.516541,2.601307 -6.94632,3.801929c-2.544159,1.114838 -5.745758,2.230499 -7.946838,3.030067c-2.286865,0.71389 -4.487976,1.45787 -5.288361,1.57143c-0.858368,0.029373 -1.372925,-0.342209 0.457367,-1.114017l0,0z" id="path65" stroke-miterlimit="10" stroke-width="0.036" stroke="#000000" fill-rule="evenodd"/>
    <path d="m389.513641,22.03331c1.457886,-0.31444 4.916748,-0.571739 8.175537,-0.65748c3.200806,-0.14292 7.375122,-0.14292 10.519562,0.11433c3.000702,0.172291 6.203094,0.80122 7.518036,1.22999c1.229187,0.400169 0.82901,1.14266 0.114349,1.22917c-0.77182,0 -2.600494,-0.772579 -4.715851,-1.001289c-2.25827,-0.25647 -5.575012,-0.48513 -8.289856,-0.456591c-2.744232,0 -5.574219,0.11438 -7.83252,0.34304c-2.400391,0.085779 -4.715851,0.37163 -5.717133,0.31444c-0.886963,-0.1437 -1.286377,-0.886961 0.227875,-1.11561l0,0z" id="path67" stroke-miterlimit="10" stroke-width="0.036" stroke="#000000" fill-rule="evenodd"/>
    <path d="m392.63028,11.82738c1.542847,0.54392 8.375641,1.40151 12.120361,2.68786c3.716156,1.285581 8.289886,4.373621 10.205902,5.174011c1.829498,0.686069 1.542847,-0.171511 1.000519,-0.686062c-0.628876,-0.657429 -2.344025,-1.515018 -4.373627,-2.572708c-2.115356,-1.114021 -5.174805,-2.486931 -7.861084,-3.458071c-2.829987,-1.00051 -6.517548,-1.8295 -8.404205,-2.02961c-1.888245,-0.229481 -4.289459,0.285069 -2.687866,0.88458l0,0z" id="path69" stroke-miterlimit="10" stroke-width="0.036" stroke="#000000" fill-rule="evenodd"/>
    <path d="m419.414337,22.490669c0.485962,0.885361 3.344543,3.373112 4.602295,5.03109c1.286377,1.600801 2.143951,3.8297 2.916565,4.602322c0.571716,0.71384 1.342743,0.600288 1.000488,-0.228701c-0.428772,-0.91473 -1.772308,-3.401701 -3.03009,-5.03109c-1.286346,-1.686581 -3.429504,-4.030581 -4.345032,-4.71665c-1.000488,-0.8004 -1.715942,-0.571701 -1.144226,0.343029l0,0z" id="path71" stroke-miterlimit="10" stroke-width="0.036" stroke="#000000" fill-rule="evenodd"/>
    <path d="m419.758179,28.865299c0.543121,0.457371 2.400391,3.173 3.487457,5.174789c0.972717,1.943062 1.715149,4.659512 2.230499,6.260311c0.314423,1.343491 0.200073,2.344002 0.114319,2.687031c-0.114319,0.514561 -0.114319,0.628891 -0.457367,-0.114319c-0.371613,-0.914783 -0.971924,-3.401711 -1.686554,-5.2598c-0.91394,-1.972424 -2.429779,-4.830982 -3.115845,-6.261082c-0.687653,-1.572201 -1.029877,-2.916519 -0.57251,-2.486931l0,0z" id="path73" stroke-miterlimit="10" stroke-width="0.036" stroke="#000000" fill-rule="evenodd"/>
    <path d="m430.077606,59.366291c0.400208,0.886127 1.886658,3.516029 2.915771,4.80238c0.886139,1.114838 1.858063,1.830276 2.571899,2.143936c0.657471,0.171524 1.143433,-0.428764 1.22998,-0.571686c-0.028564,-0.171509 -0.801178,-0.028587 -1.22998,-0.343864c-0.543121,-0.400169 -1.142609,-1.029045 -1.68576,-1.771477c-0.628876,-0.85759 -1.343536,-2.086761 -1.801697,-2.915749c-0.543121,-0.8004 -0.914734,-1.657982 -1.229187,-1.801731c-0.457367,-0.285019 -1.086243,-0.428772 -0.771027,0.458191l0,0z" id="path75" stroke-miterlimit="10" stroke-width="0.036" stroke="#000000" fill-rule="evenodd"/>
    <path d="m437.36618,65.598c0.142944,0.142921 0.571716,-0.05719 0.971924,-0.428818c0.400208,-0.372398 0.600311,-0.772583 0.457367,-0.914719c-0.114319,-0.142937 -0.543121,0.05719 -0.943329,0.428764c-0.400177,0.371635 -0.600281,0.771851 -0.485962,0.914772l0,0z" id="path77" stroke-miterlimit="10" stroke-width="0.036" stroke="#000000" fill-rule="evenodd"/>
    <path d="m414.95578,15.05839c0.084961,-1.229219 0.85675,-3.716149 1.114044,-5.60283c0.171509,-1.88665 -0.457397,-4.3744 -0.228699,-5.3749c0.143707,-0.97192 0.886169,-1.20062 1.22998,-0.68607c0.227905,0.45736 0.456573,1.68657 0.456573,3.25878c-0.028564,1.51506 -0.142914,4.08777 -0.456573,5.71715c-0.372406,1.54283 -1.001282,3.173 -1.343536,3.68755c-0.371613,0.371632 -0.886932,0.143751 -0.77179,-0.99968l0,0z" id="path79" stroke-miterlimit="10" stroke-width="0.036" stroke="#000000" fill-rule="evenodd"/>
    <path d="m417.756378,15.94452c0.71463,-1.05765 3.344543,-3.173 4.802399,-4.80239c1.401489,-1.77231 2.487762,-3.48826 3.488251,-5.25979c0.828979,-1.88664 1.457886,-4.74602 2.001007,-5.48846c0.514557,-0.80039 1.515045,-0.05719 1.343536,1.22917c-0.314453,1.31495 -1.54364,4.28788 -2.801422,6.60334c-1.229156,2.2003 -3.344513,4.91594 -4.687256,6.48896c-1.458649,1.48647 -3.173035,2.458381 -3.830475,2.687039c-0.773407,0.084961 -1.029907,-0.400169 -0.31604,-1.45787l0,0z" id="path81" stroke-miterlimit="10" stroke-width="0.036" stroke="#000000" fill-rule="evenodd"/>
    <path d="m421.216034,18.088461c0.600311,-0.686071 2.086792,-2.315461 3.801941,-2.916521c1.600769,-0.62888 5.202576,-0.88536 6.173706,-0.77185c0.914734,0.08578 0.285858,0.97274 -0.571716,1.34354c-0.971924,0.285069 -3.487457,-0.20011 -4.802399,0.428769c-1.400696,0.513781 -2.486969,2.400421 -3.258789,2.915791c-0.800385,0.42877 -1.286346,0.028549 -1.457855,-0.11515c-0.285065,-0.16992 -0.543121,-0.31284 0.115112,-0.884579l0,0z" id="path83" stroke-miterlimit="10" stroke-width="0.036" stroke="#000000" fill-rule="evenodd"/>
    <path d="m368.703217,139.663651c0.77182,0.543915 2.772827,1.686554 4.68808,2.430588c1.858063,0.685272 4.316437,1.285583 6.374634,1.686554c2.000977,0.314468 4.5737,0.656677 5.402679,0.571716c0.686066,-0.142929 -0.057159,-0.85759 -1.143433,-1.143433c-1.314941,-0.343033 -3.80188,-0.400208 -5.802887,-0.828995c-2.058197,-0.571716 -4.259277,-1.542831 -5.831512,-2.143921c-1.572205,-0.713852 -2.9729,-1.571426 -3.544617,-1.686554c-0.628876,-0.086548 -0.971924,0.4272 -0.142944,1.114044l0,0z" id="path85" stroke-miterlimit="10" stroke-width="0.036" stroke="#000000" fill-rule="evenodd"/>
    <path d="m386.883759,143.522736c-0.142914,0 -0.457367,0.343018 -0.285858,0.600296c0.05719,0.114349 0.514557,0.543137 0.714661,0.514542c0.200104,-0.05719 0.371613,-0.686066 0.400177,-0.801193c-0.171509,-0.25647 -0.600281,-0.399429 -0.828979,-0.313644l0,0z" id="path87" stroke-miterlimit="10" stroke-width="0.036" stroke="#000000" fill-rule="evenodd"/>
    <path d="m366.587891,136.976593c-0.257294,0.057159 -0.400208,0.371628 -0.314453,0.628876c-0.028595,0.114334 0.543121,0.543152 0.714661,0.514557c0.171509,-0.08577 0.428772,-0.657486 0.428772,-0.829803c-0.171509,-0.25647 -0.600311,-0.400192 -0.828979,-0.313629l0,0z" id="path89" stroke-miterlimit="10" stroke-width="0.036" stroke="#000000" fill-rule="evenodd"/>
    <path d="m338.430908,149.954514c-3.373108,0.772629 -6.488953,1.915253 -9.576202,3.430298c-3.14444,1.342743 -6.203125,2.887146 -8.718658,5.40271c-2.544128,2.486954 -4.116364,4.516541 -6.145935,9.833481c-2.143951,5.345535 -4.888184,14.664505 -6.260284,22.011032c-1.400696,7.289383 -1.686554,14.63591 -1.858063,21.382141c-0.200104,6.689072 0.228668,13.320969 0.743225,18.4664c0.400177,5.059692 0.657471,8.061188 1.858063,11.777328c1.114838,3.601791 3.201599,6.631897 5.031097,10.090775c1.743744,3.373917 3.373108,6.260269 5.659973,10.320236c2.201111,4.059174 4.773834,8.575745 7.71817,13.864105l0,0c2.029572,-2.772827 4.116333,-5.144653 6.145935,-7.002716c2.029572,-1.915253 3.74472,-3.230194 6.031586,-4.287872c2.172516,-1.171997 4.545135,-2.029602 7.117828,-2.572723l0,0c-0.657471,-2.600494 -1.48645,-6.002991 -2.829987,-10.320251c-1.314941,-4.402176 -3.916229,-11.291367 -5.031067,-15.493469c-1.229187,-4.230698 -1.486481,-7.60379 -2.086761,-9.576218c-0.628906,-1.972427 -0.428802,-1.800903 -1.715149,-2.229706c-1.515045,-0.543121 -5.602814,-0.71463 -6.403198,-0.971909c-0.77182,-0.400208 0.914734,-1.029083 2.086731,-1.114838c1.200623,-0.057175 3.687592,0.400192 4.802429,0.371628c0.914734,-0.200119 0.77179,-0.05719 1.114838,-1.343552c0.257263,-1.400696 0.428772,-4.859573 0.857574,-6.746231c0.371613,-1.915237 0.943329,-3.258774 1.715149,-4.688065c0.71463,-1.543625 2.029572,-2.9729 2.829987,-4.287857c0.71463,-1.372101 1.429291,-2.601303 1.829468,-3.801895l0,0c-0.743225,-0.628906 -1.54361,-1.51506 -2.086731,-2.772842c-0.686066,-1.314926 -1.629395,-4.087753 -1.60083,-4.688065c-0.028564,-0.600281 1.057678,0.428802 1.60083,1.229218c0.514526,0.828964 0.600281,2.458359 1.48645,3.458847c0.857574,0.85759 2.515533,1.286377 3.430267,1.715149c0.686066,0.285873 0.428802,0.343033 1.229218,0.485962c0.77179,0.114349 3.544617,-0.057175 3.80188,0.257263c0.142944,0.257278 -1.343506,1.143433 -2.458374,1.343552c-1.114838,0.085754 -2.544128,0 -4.173523,-0.485962l0,0c-0.400177,1.715149 -1.086243,3.344543 -1.943817,4.773819c-0.943329,1.343536 -2.601288,2.143936 -3.315948,3.83049c-0.743225,1.715149 -0.857574,4.459381 -1.000488,6.260284c-0.257294,1.6008 -0.085754,2.915741 -0.371613,3.944824c-0.371643,0.971909 -1.372131,1.600815 -1.457886,2.31546c-0.114349,0.628876 0.543121,0.171509 0.971924,1.715149c0.257263,1.45787 0.371613,3.801895 1.229187,7.146439c0.857574,3.230179 2.829987,8.690063 4.059174,12.406204c1.086243,3.630386 2.029572,6.832001 2.829987,9.490463c0.686066,2.601303 1.372101,4.545944 1.715149,6.14592c0.314423,1.571442 0.314423,2.601318 0.114349,3.20163l0,0c-0.371643,0.800385 -0.05719,1.514221 0.628876,2.571899c0.686066,0.972717 2.572723,1.858887 3.687561,3.20163c0.914734,1.229187 1.657959,2.544128 2.572723,4.402191c0.914734,1.801697 2.115326,4.63089 3.058655,6.517578c0.886169,1.858063 2.143951,2.9729 2.458374,4.430756c0.200104,1.372925 0.314453,3.001526 -0.857574,3.688354c-1.171997,0.543152 -3.258759,0.456604 -6.145935,-0.257263l0,0c1.229187,0.971924 1.772339,1.771515 1.972443,2.829193c0.142914,1.001282 0.028564,2.201111 -1.229187,2.944336c-1.314972,0.601105 -3.487488,0.886169 -6.631897,0.857574l0,0l0.114319,5.917236l0,0c0.914764,-0.142914 2.029602,-0.142914 3.573242,0c1.48645,0.142944 3.287354,0.428802 5.40271,0.857605l0,0l0,8.347015l0,0c4.345032,-0.314423 8.118347,-0.513733 11.434296,-0.485138c3.258759,-0.028595 5.745728,0.457336 8.118347,0.371582c2.25827,-0.171509 3.487457,0.485962 5.888672,-1.229187c2.429779,-1.858063 5.259766,-4.830963 8.604309,-9.347534l0,0c-2.143951,-6.431793 -3.516052,-13.291565 -4.430817,-20.895386c-0.943298,-7.66098 -1.229156,-16.436798 -0.857544,-24.440826c0.371613,-8.061157 1.314941,-15.865067 2.944305,-23.640411l0,0c-3.001495,-2.544113 -5.945831,-5.545624 -8.832977,-9.118835c-2.915741,-3.601807 -5.374115,-7.175034 -8.604309,-12.26329c-3.373138,-5.174042 -6.917755,-11.319962 -11.062683,-18.552155l0,0c0.314423,-2.286865 0.514526,-4.345047 0.600281,-6.288879c0.028595,-2.000977 0.028595,-3.658951 -0.114319,-5.288345l0,0c-1.743744,0.428772 -3.258789,0.485962 -4.659485,0.171494c-1.372131,-0.371597 -2.601318,-1.000488 -3.687561,-2.229675c-1.200592,-1.343536 -2.31546,-3.258774 -3.458893,-5.517044c-1.200592,-2.37262 -2.172516,-4.71666 -3.687561,-8.347031c-1.600006,-3.746338 -3.486664,-8.063568 -5.774323,-13.49408l0,0z" id="path91" stroke-miterlimit="10" stroke-width="0.036" stroke="#000000" fill-rule="evenodd" fill="#294b70"/>
    <path d="m446.542206,147.324646c2.601318,0.114349 5.231201,0.657471 8.004028,1.51506c2.801392,0.743195 5.860077,1.600784 8.289856,3.658142c2.171722,2.029587 3.458099,4.57373 5.40271,8.948151c2.029572,4.344238 4.459381,11.77655 6.517548,17.237213c1.972412,5.43129 4.030609,11.119858 5.174011,15.207596c1.029907,3.944855 1.172821,5.48848 1.201416,8.947372c-0.085785,3.401703 -0.171509,6.060165 -1.343536,11.948822c-1.257782,5.917267 -4.030579,16.493973 -5.688568,23.468903c-1.715149,6.974945 -2.715637,11.348557 -4.230682,17.866074c-1.514252,6.403229 -3.173035,13.092285 -4.859589,20.381653l0,0c-0.943329,-2.544128 -2.400421,-4.915955 -4.487183,-7.346527c-2.086731,-2.458374 -5.231171,-5.40271 -7.890442,-7.060669c-2.744232,-1.772308 -6.94635,-1.629395 -8.404205,-3.115875c-1.48645,-1.54361 -0.943329,-3.088043 -0.685272,-5.832275c0.171509,-2.858582 0.713867,-7.175003 1.629395,-10.862579c0.743225,-3.687576 1.829468,-7.432281 3.14444,-11.119858c1.342712,-3.859085 4.173492,-8.718658 4.859558,-11.262772c0.571716,-2.515549 -0.343811,-2.601303 -1.201385,-3.801926c-0.91394,-1.314926 -2.743439,-2.544113 -3.944824,-3.801895c-1.314941,-1.314957 -2.744232,-2.572723 -3.516052,-3.773315c-0.77182,-1.200592 -1.029083,-2.229691 -1.086273,-3.516052c-0.084961,-1.45787 0.457397,-4.173523 0.400208,-4.745239c-0.171509,-0.657486 -1.142639,0.257294 -1.372101,1.200592c-0.228699,0.886185 -0.028595,2.887177 -0.400208,4.230713c-0.57251,1.229172 -1.830292,1.886642 -2.572723,3.516037c-0.77182,1.543625 -1.657959,5.088272 -1.772308,6.117355c-0.084991,0.914749 0.57251,0.600311 1.086243,-0.285873c0.400208,-1.000488 0.71463,-3.973419 1.372925,-5.288345c0.543121,-1.343536 1.342712,-2.115341 2.171722,-2.429779l0,0c0.57251,1.429276 1.343536,2.629868 2.430573,3.916229c1.000519,1.257782 2.744232,2.286865 3.80191,3.401703c0.971924,0.886154 2.086761,1.486465 2.458374,2.572723c0.285858,1.057678 0.343018,1.943832 -0.285858,4.087753c-0.713867,2.143936 -2.400421,5.774323 -3.516052,8.804413c-1.114838,2.915756 -2.115356,5.174026 -3.001495,9.090271c-0.943329,3.973419 -2.115356,11.005524 -2.429779,14.264282c-0.314453,3.058701 -0.115143,3.487473 0.257263,4.60231c0.25647,1.143433 0.628876,1.715149 1.229187,2.029602l0,0c-0.57251,0.886169 -1.429291,1.743713 -2.459167,2.459167c-1.142639,0.657471 -2.743439,0.77182 -3.91626,1.886658c-1.229187,1.142639 -1.715149,3.201599 -3.001495,4.745239c-1.400696,1.429291 -3.91626,2.25827 -4.88739,3.80191c-1.029053,1.48642 -1.172791,3.487457 -1.086243,4.888153c-0.028595,1.229156 0.343048,2.171722 1.229187,2.715637c0.914734,0.513763 2.086761,0.457367 3.944855,0.142914l0,0c0,0.428802 -0.400238,0.800415 -1.086273,1.343567c-0.857574,0.400177 -2.715668,0.800385 -3.258789,1.629364c-0.571716,0.857574 -0.457367,2.286865 0,3.401703c0.457367,1.029083 1.342743,2.229675 2.42981,2.715637c1.001282,0.371643 2.172516,0.028595 3.401703,-0.142914c1.172791,-0.200104 2.31543,-0.600281 3.544617,-1.086243l0,0c0.171509,1.629364 0.543915,2.715637 1.343536,3.258759c0.77182,0.457367 2.143921,0.314453 3.115845,0c0.886169,-0.343018 1.657959,-0.971924 2.31546,-1.886658l0,0c0.400177,0.372406 0.971893,0.686066 1.48645,0.943329c0.571716,0.257263 1.086273,0.400208 1.772308,0.543121l0,0c-0.372406,2.687073 -0.657471,5.259796 -1.086273,7.603821c-0.428772,2.372589 -0.372375,4.516541 -1.372894,6.431793c-1.086273,1.772308 -1.571411,3.258759 -4.888153,4.345825c-3.458099,0.971924 -9.489685,1.6008 -15.32196,1.771515c-5.888672,0.143738 -14.235687,0.028595 -19.408936,-0.685272c-5.145447,-0.71463 -8.861572,-1.972382 -11.26358,-3.658966l0,0c-2.172516,-4.688049 -3.830505,-10.119354 -5.288361,-16.293884c-1.48645,-6.346039 -2.829987,-13.463867 -3.258789,-20.896179c-0.485962,-7.460876 -0.085754,-16.551941 0.543152,-23.069473c0.514526,-6.517563 1.54361,-11.805923 2.858551,-15.865097l0,0c2.658478,-1.54364 5.517059,-3.630386 8.689301,-6.374619c3.144409,-2.801407 6.746216,-6.374634 10.034363,-10.176529c3.258789,-3.859085 6.173737,-8.861588 9.089478,-12.806442c2.801422,-3.973389 5.174835,-7.71814 7.460876,-11.119827l0,0c-0.943329,-3.430298 -1.657959,-6.003006 -2.029572,-8.146942c-0.400208,-2.115341 -0.57251,-3.601807 -0.400208,-4.459396l0,0c2.486969,0.028595 4.658691,-0.514526 6.631897,-1.515015c1.886658,-1.029099 3.201599,-2.058212 5.031097,-4.745239c1.800903,-2.887177 3.74472,-7.861099 5.831482,-11.948853c2.030396,-4.144928 4.202118,-8.204102 6.517548,-12.520554l0,0z" id="path93" stroke-miterlimit="10" stroke-width="0.036" stroke="#000000" fill-rule="evenodd" fill="#294b70"/>
    <path d="m390.657074,251.004349c0.257294,2.429779 1.886658,4.231491 3.630402,4.059174c1.743744,-0.200119 2.972931,-2.315445 2.715637,-4.745255c-0.257263,-2.401184 -1.886658,-4.230667 -3.658966,-4.030579c-1.743744,0.172318 -2.943542,2.286865 -2.687073,4.71666l0,0z" id="path95" stroke-miterlimit="10" stroke-width="0.036" stroke="#000000" fill-rule="evenodd"/>
    <path d="m391.628998,251.318787c0.171509,1.51503 1.200592,2.658463 2.316254,2.544128c1.085449,-0.114349 1.858063,-1.45787 1.686554,-2.972931c-0.143738,-1.543625 -1.172821,-2.687057 -2.287659,-2.572708c-1.114838,0.143723 -1.858093,1.458679 -1.715149,3.001511l0,0z" id="path97" stroke-miterlimit="10" stroke-width="0.036" stroke="#000000" fill-rule="evenodd" fill="#294b70"/>
    <path d="m390.371216,275.445953c0.257294,2.401215 1.886658,4.230682 3.630402,4.030609c1.772308,-0.171509 2.972931,-2.286865 2.715637,-4.715881c-0.25647,-2.430542 -1.886658,-4.230682 -3.630371,-4.059174c-1.772339,0.19931 -2.972137,2.314667 -2.715668,4.744446l0,0z" id="path99" stroke-miterlimit="10" stroke-width="0.036" stroke="#000000" fill-rule="evenodd"/>
    <path d="m391.372528,275.731812c0.142914,1.54364 1.171997,2.687073 2.286865,2.572723c1.114838,-0.143707 1.858063,-1.457886 1.715118,-3.001495c-0.171509,-1.515045 -1.201385,-2.658478 -2.316223,-2.544128c-1.086243,0.114349 -1.858063,1.457886 -1.68576,2.9729l0,0z" id="path101" stroke-miterlimit="10" stroke-width="0.036" stroke="#000000" fill-rule="evenodd" fill="#294b70"/>
    <path d="m459.292267,273.816559c0.027802,-0.114349 0.171509,-0.343018 0.543121,-0.686066c0.314453,-0.343018 0.77182,-0.800385 1.372894,-1.372101l0,0c0.82901,0.943329 1.542847,1.886658 2.029602,2.715637c0.457367,0.82901 0.77182,1.6008 0.943329,2.31546l0,0c-1.314148,-0.285858 -2.31543,-0.800415 -3.115845,-1.229218c-0.830566,-0.457336 -1.459442,-1.143433 -1.773102,-1.743713l0,0z" id="path103" stroke-miterlimit="10" stroke-width="0.036" stroke="#000000" fill-rule="evenodd" fill="#e0e0e0"/>
    <path d="m444.912842,260.781464c-0.628906,1.000519 -1.571442,1.743744 -2.715668,2.572723c-1.171997,0.743225 -3.430298,0.971924 -4.345032,1.915253c-1.029083,0.886169 -0.801178,2.229675 -1.630188,3.373108c-0.943298,1.029114 -2.800598,2.143951 -3.80188,3.115875c-1.08548,0.886139 -1.886688,1.571411 -2.286865,2.715607c-0.513763,1.114868 -0.657471,2.944336 -0.428802,3.944855c0.172302,0.82901 0.714661,1.401489 1.630188,1.486481c0.857574,0.115112 2.25827,0 3.544647,-0.800446c1.171997,-0.943298 2.544128,-2.944305 3.658173,-4.345001c0.972717,-1.486481 2.344025,-3.887665 2.572723,-3.80191c0.142914,0.114319 -0.600311,2.9729 -1.342743,4.487183c-0.886169,1.430054 -1.887451,2.944305 -3.001526,4.202087c-1.057648,1.201385 -2.058167,2.115356 -3.115814,2.859375c-1.143433,0.657471 -2.630707,0.857574 -3.258789,1.48645c-0.628082,0.628876 -0.657471,1.65799 -0.400208,2.429779c0.142944,0.744049 0.914764,1.829498 1.772339,2.172546c0.857574,0.285034 2.058167,0.057159 3.373108,-0.257294c1.200592,-0.400177 2.515533,-0.828979 3.944824,-2.172516c1.429291,-1.457886 3.544647,-5.459869 4.487183,-6.37381c0.772614,-0.943359 0.772614,-0.05719 0.543915,0.657471c-0.314453,0.571716 -1.257782,1.914429 -2.058167,3.144409c-0.828979,1.257782 -1.772308,2.658478 -2.829987,4.316467l0,0c-0.05719,0.971924 0.200104,1.657959 0.657471,2.172516c0.457367,0.513733 1.257782,0.857544 2.058167,0.685272c0.71463,-0.371643 1.48645,-1.142639 2.430573,-2.31546c0.885376,-1.200592 2.143127,-3.172241 3.000702,-4.602295c0.744019,-1.6008 1.286377,-3.629608 1.743744,-4.202118c0.485962,-0.571716 1.143433,0 1.086273,0.943329c-0.228699,0.828979 -1.314941,2.744232 -2.029602,4.202087c-0.744019,1.343567 -1.430084,2.744263 -2.172516,4.086975l0,0c0.713837,0.857605 1.571411,1.314941 2.572723,1.486481c0.971924,0.057159 2.200317,-0.056396 3.258759,-0.685272c0.914764,-0.686035 2.029602,-1.772308 2.572723,-3.258789c0.371613,-1.629395 0.400208,-4.430786 0.543152,-6.088745c0.171478,-1.715149 -0.028595,-2.601318 0.828979,-4.086975c0.828979,-1.572205 2.31543,-3.373108 4.345825,-5.288361l0,0c-1.915253,-2.601288 -3.773315,-4.716644 -5.575012,-6.232513c-1.858093,-1.629364 -3.658203,-2.371796 -5.288361,-3.000702c-1.60083,-0.686829 -3.08728,-1.001282 -4.345032,-0.944122l0,0z" id="path105" stroke-miterlimit="10" stroke-width="0.036" stroke="#000000" fill-rule="evenodd" fill="#e8ccba"/>
    <path d="m331.88559,272.844666c0.457367,0.857544 0.857574,1.915222 1.200592,3.401703c0.257263,1.457855 0.600311,3.400879 0.686066,5.174011c-0.05719,1.743744 -0.114349,3.573212 -0.285858,5.145416c-0.142944,1.400726 -0.571716,2.458405 -0.400208,3.516083c0.085754,1.029053 0.543121,1.858063 1.372131,2.600494c0.800385,0.686035 1.972412,1.143433 3.516022,1.48645l0,0c0.142944,-3.08728 0.514557,-5.574219 1.229187,-7.889648c0.686066,-2.286865 1.972412,-5.059692 2.972931,-5.688568c0.943329,-0.628906 1.886658,0.285828 2.715637,1.629395c0.657471,1.200592 1.429291,3.917023 1.772308,5.831482c0.343048,1.886658 0.514557,3.745514 0.400208,5.575012l0,0c1.200592,0.343018 2.286865,0.513733 3.258789,0.400208c0.914734,-0.171539 2.172516,-0.343048 2.572723,-0.943329c0.285828,-0.713867 0.200073,-1.629395 -0.257294,-2.858582c-0.457367,-1.257782 -1.48645,-3.344543 -2.31543,-4.487976c-0.886169,-1.257751 -1.915253,-2.000977 -2.972931,-2.571899l0,0c0.142944,-1.229187 -0.085754,-2.572754 -0.686066,-3.917053c-0.657471,-1.429291 -2.458374,-3.429504 -2.9729,-4.345062c-0.657471,-1.000488 -0.714661,-1.715118 -0.285858,-1.372101c0.457367,0.25647 2.31543,1.629395 3.258759,3.115845c0.82901,1.486481 1.54364,3.229401 2.029602,5.574219l0,0c1.343536,1.601593 2.486969,2.830017 3.544617,3.80191c0.971924,0.914734 1.65799,1.429291 2.715668,1.772339c1.029083,0.285034 3.201599,0.656677 3.658966,0c0.343018,-0.772644 -0.314453,-2.659271 -1.086243,-4.345856c-0.886169,-1.74292 -2.544128,-4.029785 -3.544647,-5.973602c-0.943329,-2.058197 -1.029083,-4.259277 -2.029572,-5.717133c-1.172028,-1.429321 -3.287384,-1.60083 -4.345062,-2.830017c-0.971893,-1.285553 -1.657959,-2.829193 -1.743713,-4.745239l0,0c-2.401215,0.200104 -4.716644,0.971924 -7.060669,2.42981c-2.31546,1.457855 -4.660278,3.458862 -6.917755,6.231689l0,0z" id="path107" stroke-miterlimit="10" stroke-width="0.036" stroke="#000000" fill-rule="evenodd" fill="#e8ccba"/>
    <path d="m327.39682,279.247864c0.485962,-1.542847 1.029083,-2.687073 1.629395,-3.544617c0.571716,-0.857605 1.200592,-1.400726 1.886658,-1.629395l0,0c0.343018,0.342987 0.657471,0.800385 0.828979,1.372101c0.114349,0.514526 0.200104,1.143433 0.142944,1.886658l0,0c-0.743256,0.57251 -1.429291,1.029877 -2.172516,1.372894c-0.743256,0.343048 -1.514252,0.485199 -2.31546,0.542358l0,0z" id="path109" stroke-miterlimit="10" stroke-width="0.036" stroke="#000000" fill-rule="evenodd" fill="#e0e0e0"/>
    <path d="m339.374237,300.973053c-0.057159,-3.173035 -0.057159,-5.860107 0,-8.175537c-0.028564,-2.401215 -0.057159,-4.087769 0.371643,-5.831482c0.428772,-1.830292 1.515045,-4.317261 2.372589,-4.830994c0.77182,-0.514557 1.629395,-0.343811 2.344055,1.74292c0.600281,2.086761 1.200592,7.432281 1.48645,10.405243c0.228668,2.887146 0.228668,5.002472 0,6.689026l0,0l-2.229706,0l0,0c0.228699,-1.171997 0.228699,-2.086731 0.114349,-2.858551c-0.257263,-0.886169 -0.628876,-1.458679 -1.114838,-1.601593c-0.514526,-0.084991 -1.457855,0.428772 -1.715149,1.229156c-0.371613,0.714691 -0.457367,1.715149 -0.257263,3.116669l0,0c-0.456573,0.029358 -0.914734,0.057953 -1.372131,0.115143l0,0z" id="path111" stroke-miterlimit="10" stroke-width="0.036" stroke="#000000" fill-rule="evenodd" fill="#77605b"/>
    <path d="m330.569855,304.317566c2.115326,-0.600311 4.516541,-1.086273 7.203583,-1.343536c2.687073,-0.400208 5.717163,-0.571686 8.661499,-0.513733c2.887146,0.084961 5.517029,0.457367 8.318451,1.114838l0,0c-0.514557,6.288849 -1.057678,13.748962 -1.629395,23.0401c-0.71463,9.26181 -1.515045,24.240753 -1.972412,31.930298c-0.428772,7.460876 -0.485962,8.289856 -0.628876,13.17804c-0.257294,4.916748 -0.543152,10.176514 -0.857574,16.123138l0,0c-3.773346,0.285095 -7.203613,0.343048 -10.405212,0.485199c-3.258789,0.057159 -6.088776,0.057159 -8.804413,0l0,0c-0.77182,-13.720398 -1.229187,-25.35556 -1.486481,-35.560699c-0.228668,-10.262299 -0.114319,-19.751953 0,-25.040314c-0.057159,-5.231201 -0.428772,-2.31543 -0.114319,-6.145935c0.257263,-3.917023 0.828979,-9.634979 1.715149,-17.267395l0,0z" id="path113" stroke-miterlimit="10" stroke-width="0.036" stroke="#000000" fill-rule="evenodd" fill="#77605b"/>
    <path d="m341.689697,306.175659c-0.971924,6.974915 -1.715149,14.893158 -2.344025,24.098572c-0.77182,9.14743 -1.343536,21.210632 -1.486481,30.557373c-0.114319,9.347534 0.142944,17.494476 0.886169,24.983917l0,0c0.257263,-19.208801 0.686066,-35.074707 1.172028,-48.481415c0.45816,-13.349518 1.086243,-23.583221 1.772308,-31.158447l0,0z" id="path115" stroke-miterlimit="10" stroke-width="0.036" stroke="#000000" fill-rule="evenodd"/>
    <path d="m390.599915,302.373749c-1.286377,1.915222 -2.715637,3.658966 -4.287872,5.116852c-1.629364,1.515045 -2.944336,2.858582 -5.374115,3.687531c-2.601288,0.657471 -5.774323,0.343842 -9.404724,0.485962c-3.601776,0.05719 -9.490448,-0.200073 -12.034576,0c-2.629883,0.085754 -3.744751,0.400238 -3.458893,0.82901l0,0c-0.743225,6.232483 -1.257751,12.120361 -1.657959,18.123352c-0.457367,5.945831 -0.514557,11.662994 -0.828979,17.380127c-0.371643,5.631409 -0.77182,10.919769 -1.200623,16.20816l-0.114349,0.142914c1.286377,7.032074 2.37262,12.692047 3.315948,17.265778c0.943329,4.57373 1.515045,7.317963 2.286865,9.890656c0.714661,2.572754 1.400696,4.117157 2.143951,5.374939c0.71463,1.229187 1.057648,1.571411 2.25827,2.029572c1.171997,0.457367 3.716125,0.428802 4.773804,0.714661c1.029083,0.25647 1.6008,0.656677 1.429291,0.828979c-0.200104,0.171509 -1.515045,0.228699 -2.515533,0.228699c-1.000519,0.027771 -2.143951,0 -3.458893,-0.115143c0.686066,3.14444 1.314941,6.488953 1.915253,10.262268c0.600311,3.744751 1.229187,7.546661 1.65799,12.034607c0.428772,4.487946 0.686035,10.233704 0.971893,14.66449c0.257294,4.430817 0.571716,7.919037 0.714661,11.662994c0.085754,3.773315 -0.142944,7.575195 0,10.74823c0.114319,3.144409 0.543121,6.203125 0.71463,7.975433c0.114349,1.715118 0.171509,2.515533 0.114349,2.371826c1.800903,0.115112 3.658966,0.143707 5.602814,0.115112c1.915222,0 3.658966,-0.085724 5.945831,-0.228668c2.286865,-0.142914 5.888672,-0.343018 7.632385,-0.600281c1.715149,-0.228699 1.915253,-0.257294 2.601318,-0.828979c0.686035,-0.600342 1.171997,-1.429321 1.42926,-2.630737c-0.028564,-2.315399 -0.057159,-6.631866 -0.114319,-13.206573c-0.028595,-6.631897 0.028595,-15.665009 -0.114349,-25.984436c-0.142914,-10.348053 -0.628876,-26.298889 -0.71463,-35.474915c-0.085785,-9.118866 0.085754,-13.12088 0.228668,-18.923767c0.142944,-5.832306 0.600311,-11.692383 0.600311,-15.694397c-0.028595,-4.002014 -0.257263,-6.660461 -0.714661,-8.118347c-0.543121,-0.115112 -1.257751,-0.200073 -2.143921,-0.228668c-0.886169,-0.057159 -2.658478,0.142914 -3.08725,0l0,0c-0.428802,-0.142944 0.057159,-0.714661 0.600281,-0.82901c0.543152,-0.142914 1.686554,0.057159 2.601318,0.114349c0.914734,0.05719 1.829468,0.200104 2.858551,0.228699c1.057678,0.057159 2.858582,-0.084961 3.344543,0c0.485962,0.115112 0,0.457367 -0.485962,0.600281c-0.457367,0.143738 -1.257751,0.228699 -2.37262,0.228699c0.371613,3.373108 0.543152,8.175537 0.485962,14.66449c-0.085754,6.518341 -0.77179,16.408203 -0.828979,24.069977c-0.085754,7.603821 0.314453,13.549683 0.457367,21.324982c0.142944,7.803131 0.285858,18.379822 0.371613,25.012543c0.05719,6.573914 0.085754,8.947327 0.114349,14.292877c0.028595,5.374115 0.028595,11.148407 0,17.608826c1.314941,-0.05719 2.687073,-0.028595 4.287872,0.114349c1.572205,0.143677 3.115845,0.7146 5.116852,0.7146c2.000977,-0.028534 4.259277,-0.571686 6.803406,-0.828949c2.543335,-0.257294 5.259766,-0.514557 8.318451,-0.714661c-0.857574,-10.233704 -1.286377,-18.980927 -1.286377,-26.699097c-0.028564,-7.689545 0.657471,-13.978455 1.172821,-19.181061c0.513763,-5.202606 1.257782,-8.37558 1.914459,-11.777283c0.628876,-3.40094 1.257751,-6.173737 1.915253,-8.460602c-1.029114,-0.115143 -1.971649,-0.115143 -2.858582,0c-0.914764,0.084961 -2.115356,0.713837 -2.515564,0.600281c-0.400208,-0.171478 -0.485962,-1.143433 0.114349,-1.42926c0.600311,-0.285858 2.344025,-0.115143 3.458862,-0.257294c1.114868,-0.14212 2.200317,0.600311 3.230225,-0.571716c1.000488,-1.201385 1.914429,-3.088043 2.743439,-6.461151c0.772583,-3.373108 0.972687,-5.544861 2.00177,-13.578247c1.057678,-8.089752 3.058685,-26.098755 4.173523,-34.274323l0,0c1.114838,-8.118347 1.515045,-8.918732 2.515533,-14.178497c0.972717,-5.259003 2.058197,-10.891174 3.315948,-17.151459c-3.629578,0.485962 -7.317932,0.857544 -11.176208,1.086243c-3.917053,0.200104 -7.890472,0.371613 -11.921051,0.228699c-4.05838,-0.142944 -8.717865,-0.314453 -12.148956,-1.086273c-3.458862,-0.743225 -6.17453,-1.886658 -8.347046,-3.430298c-0.943329,-1.372101 -1.629395,-2.429779 -2.086761,-3.258759c0,-0.028595 -0.028564,-0.057159 -0.028564,-0.057159c-0.028595,-0.05719 -0.05719,-0.085785 -0.085785,-0.142944c-0.028564,-0.05719 -0.028564,-0.085754 -0.057159,-0.115143c-0.457367,-0.885345 -0.628876,-1.372131 -0.485962,-1.571442l-0.343018,-0.942505z" id="path117" stroke-miterlimit="10" stroke-width="0.036" stroke="#000000" fill-rule="evenodd" fill="#294b70"/>
    <path d="m388.684662,471.801483c-0.085754,0.314453 -0.71463,0.943329 -1.772308,1.772308c-1.086273,0.77182 -2.601318,1.858093 -4.659485,3.14447l0,0c0.571716,1.342712 0.485962,2.629822 -0.142914,3.973389c-0.743225,1.172028 -1.65799,1.858093 -3.944855,3.830505c-2.401184,2.000977 -7.060669,6.660492 -10.005005,8.347015c-2.944336,1.571411 -6.803406,2.629883 -7.403717,1.515045c-0.686035,-1.201385 1.486481,-5.316925 3.430298,-8.061157c1.800903,-2.858612 5.688568,-6.574738 7.803925,-8.489197c2.086761,-1.972412 3.687561,-2.945129 4.802399,-3.03006l0,0c-0.428802,-0.371643 -0.600311,-0.686096 -0.828979,-0.943329c-0.142944,-0.285065 -0.343048,-0.513794 -0.285858,-0.685303l0,0c-2.229706,0.943329 -4.63089,2.715698 -7.518066,5.202606c-3.001495,2.458374 -6.860565,6.28891 -9.576233,9.719147c-2.687042,3.45813 -5.259766,7.489471 -6.1745,10.662506c-1.086273,3.08728 -0.943329,6.631897 0.428772,7.660187c1.343536,0.886169 4.57373,-0.400177 7.803925,-2.31546c3.144409,-2.058167 7.746704,-6.689026 11.062683,-9.576233c3.201599,-2.944275 5.688568,-5.088226 8.232697,-7.660156c2.429779,-2.659271 5.659973,-6.574738 6.83197,-7.66098c1.200623,-1.057648 0.857574,-0.05719 0.285858,1.229187c-0.657471,1.257782 -2.115326,3.115814 -4.259277,6.003784l0,0l-0.400177,3.829712l0,0c1.657959,-1.65799 3.115845,-3.058685 4.373596,-4.630859c1.286377,-1.571442 2.515564,-2.715698 3.14444,-4.516602c0.457367,-1.858032 0.200104,-4.773804 0,-6.317444c-0.257263,-1.573792 -0.628876,-2.57431 -1.229187,-3.003082l0,0z" id="path119" stroke-miterlimit="10" stroke-width="0.036" stroke="#000000" fill-rule="evenodd" fill="#77605b"/>
    <path d="m378.279449,475.088806c0.571716,-0.172302 1.429291,0.056366 1.915253,0.685242c0.485962,0.600342 1.629395,1.915283 1.114838,3.288208c-0.71463,1.286346 -2.486969,2.772003 -4.659485,4.773773c-2.286835,2.001038 -5.831482,5.40274 -8.204102,7.117859c-2.458374,1.572235 -4.63089,2.458374 -5.631378,2.344055c-1.000519,-0.200104 -1.143433,-1.400696 0,-3.287384c1.057678,-1.972412 4.316437,-5.80365 6.574707,-8.089752c2.25827,-2.31546 5.116852,-4.516541 6.717651,-5.602844c1.429291,-1.114838 1.487244,-1.229156 2.172516,-1.229156l0,0z" id="path121" stroke-miterlimit="10" stroke-width="0.036" stroke="#000000" fill-rule="evenodd" fill="#77605b"/>
    <path d="m398.689667,467.970978c-0.657471,0.428772 -1.200592,1.257751 -1.515045,2.601288c-0.371613,1.343536 -0.513733,3.230194 -0.543121,5.202606c-0.057159,1.801697 -0.143707,4.459412 0.400208,6.003784c0.457367,1.515076 1.029083,1.915283 2.486969,3.173035c1.372101,1.172028 3.287354,2.458405 5.860077,3.973419l0,0l0.828979,-3.573242l0,0c-1.6008,-0.943298 -2.972931,-1.715118 -4.230682,-2.744202c-1.286377,-1.029083 -3.373138,-2.887177 -3.287384,-3.144409c0.085754,-0.343872 1.372131,0 3.544647,1.37207c2.086761,1.229218 5.831482,4.145752 8.918762,6.432617c3.000702,2.31546 5.831482,5.174011 9.033081,7.260773c3.14444,1.915283 6.860565,3.688354 9.718384,4.773834c2.744202,1.143433 5.632172,2.115326 7.118622,1.801666c1.571411,-0.457367 2.200317,-2.030396 1.771545,-4.259277c-0.628906,-2.343994 -2.915771,-6.17453 -5.202606,-9.175995c-2.458405,-3.059509 -5.631409,-6.232483 -8.632904,-8.748077c-3.03009,-2.629852 -6.403229,-5.031067 -8.890167,-6.431763c-2.458374,-1.429291 -4.373627,-2.029572 -5.744965,-1.915222l0,0c0.343048,0.485931 0.513763,0.943298 0.400208,1.37207c-0.115143,0.428833 -0.428772,0.801239 -0.943329,1.230011l0,0c2.630676,0.828979 5.145447,1.829498 7.66098,3.429504c2.515564,1.54361 5.631409,3.516815 7.375122,5.603607c1.629395,2.029572 2.229675,4.516541 2.343231,6.145111c-0.027771,1.48645 -0.027771,3.173035 -2.200287,2.744232c-2.258301,-0.600311 -8.004028,-4.116333 -10.948364,-6.031555c-2.9729,-1.972443 -5.202576,-3.859131 -6.689056,-5.316986c-1.48645,-1.457886 -2.344025,-2.600494 -2.344025,-3.429474l0,0c-1.54364,0.084961 -2.744232,-0.085785 -3.830475,-0.82901c-1.172028,-0.772614 -2.143951,-2.172516 -2.600525,-3.430267c-0.428802,-1.260162 -0.343811,-2.660889 0.14212,-4.090149l0,0z" id="path123" stroke-miterlimit="10" stroke-width="0.036" stroke="#000000" fill-rule="evenodd" fill="#77605b"/>
    <path d="m406.751648,476.460938c0.371613,1.200623 1.829498,2.858551 3.716156,4.516541c1.886658,1.571442 4.859589,3.429535 7.375122,4.915955c2.400421,1.400726 5.574219,3.401733 6.974915,3.573212c1.257782,0.05719 1.286377,-1.6008 0.971924,-2.887146c-0.428772,-1.457886 -0.914764,-3.258789 -2.887177,-5.059692c-2.030365,-1.829437 -6.232483,-4.316437 -8.748016,-5.602783c-2.486969,-1.401489 -4.859589,-2.286865 -6.031616,-2.201111c-1.257751,0.115143 -1.828674,1.430084 -1.371307,2.745026l0,0z" id="path125" stroke-miterlimit="10" stroke-width="0.036" stroke="#000000" fill-rule="evenodd" fill="#77605b"/>
    <polygon points="381.30954567879706,491.09685665098385 377.4798448900331,491.38270250673423 381.4238864443412,487.2663380173884 381.4238864443412,487.2663380173884 " id="polygon127" stroke-miterlimit="10" stroke-width="0.036" stroke="#000000" fill-rule="evenodd" fill="#77605b"/>
    <polygon points="406.63651595371664,488.9243215245471 409.7809536453882,488.238252698843 407.4369134287452,486.0371717587343 407.4369134287452,486.0371717587343 " id="polygon129" stroke-miterlimit="10" stroke-width="0.036" stroke="#000000" fill-rule="evenodd" fill="#77605b"/>
   </g>
  </g>
  <title>Layer 1</title>
 </g>
</svg>